<svg id="visual" viewBox="0 0 900 1200" width="900" height="1200" xmlns="http://www.w3.org/2000/svg" xmlns:xlink="http://www.w3.org/1999/xlink" version="1.1"><path d="M64 0L59 12.5C54 25 44 50 39.7 75C35.3 100 36.7 125 35.7 150C34.7 175 31.3 200 30.5 225C29.7 250 31.3 275 41.3 300C51.3 325 69.7 350 71 375C72.3 400 56.7 425 53.8 450C51 475 61 500 59.7 525C58.3 550 45.7 575 43.3 600C41 625 49 650 49.2 675C49.3 700 41.7 725 40.2 750C38.7 775 43.3 800 51.3 825C59.3 850 70.7 875 68.3 900C66 925 50 950 42.2 975C34.3 1000 34.7 1025 36 1050C37.3 1075 39.7 1100 37.5 1125C35.3 1150 28.7 1175 25.3 1187.5L22 1200L0 1200L0 1187.5C0 1175 0 1150 0 1125C0 1100 0 1075 0 1050C0 1025 0 1000 0 975C0 950 0 925 0 900C0 875 0 850 0 825C0 800 0 775 0 750C0 725 0 700 0 675C0 650 0 625 0 600C0 575 0 550 0 525C0 500 0 475 0 450C0 425 0 400 0 375C0 350 0 325 0 300C0 275 0 250 0 225C0 200 0 175 0 150C0 125 0 100 0 75C0 50 0 25 0 12.5L0 0Z" fill="#ffffff"></path><path d="M23 0L23.5 12.5C24 25 25 50 23 75C21 100 16 125 18.5 150C21 175 31 200 33.8 225C36.7 250 32.3 275 33.8 300C35.3 325 42.7 350 46.7 375C50.7 400 51.3 425 44.8 450C38.3 475 24.7 500 18 525C11.3 550 11.7 575 13.2 600C14.7 625 17.3 650 26.3 675C35.3 700 50.7 725 55.7 750C60.7 775 55.3 800 51.5 825C47.7 850 45.3 875 46.5 900C47.7 925 52.3 950 52.7 975C53 1000 49 1025 42.5 1050C36 1075 27 1100 26.2 1125C25.3 1150 32.7 1175 36.3 1187.5L40 1200L0 1200L0 1187.5C0 1175 0 1150 0 1125C0 1100 0 1075 0 1050C0 1025 0 1000 0 975C0 950 0 925 0 900C0 875 0 850 0 825C0 800 0 775 0 750C0 725 0 700 0 675C0 650 0 625 0 600C0 575 0 550 0 525C0 500 0 475 0 450C0 425 0 400 0 375C0 350 0 325 0 300C0 275 0 250 0 225C0 200 0 175 0 150C0 125 0 100 0 75C0 50 0 25 0 12.5L0 0Z" fill="#c8c8c8"></path><path d="M23 0L24.8 12.5C26.7 25 30.3 50 30.8 75C31.3 100 28.7 125 26 150C23.3 175 20.7 200 17 225C13.3 250 8.7 275 11.8 300C15 325 26 350 31.2 375C36.3 400 35.7 425 30.7 450C25.7 475 16.3 500 17 525C17.7 550 28.3 575 30.5 600C32.7 625 26.3 650 22.3 675C18.3 700 16.7 725 15 750C13.3 775 11.7 800 11.5 825C11.3 850 12.7 875 11.7 900C10.7 925 7.3 950 11.7 975C16 1000 28 1025 30.3 1050C32.7 1075 25.3 1100 21.8 1125C18.3 1150 18.7 1175 18.8 1187.5L19 1200L0 1200L0 1187.5C0 1175 0 1150 0 1125C0 1100 0 1075 0 1050C0 1025 0 1000 0 975C0 950 0 925 0 900C0 875 0 850 0 825C0 800 0 775 0 750C0 725 0 700 0 675C0 650 0 625 0 600C0 575 0 550 0 525C0 500 0 475 0 450C0 425 0 400 0 375C0 350 0 325 0 300C0 275 0 250 0 225C0 200 0 175 0 150C0 125 0 100 0 75C0 50 0 25 0 12.5L0 0Z" fill="#949494"></path></svg>